<?xml version="1.0" encoding="utf-8"?>
<!-- Generator: Adobe Illustrator 24.0.0, SVG Export Plug-In . SVG Version: 6.00 Build 0)  -->
<!DOCTYPE svg PUBLIC "-//W3C//DTD SVG 1.1//EN" "http://www.w3.org/Graphics/SVG/1.1/DTD/svg11.dtd" [
	<!ENTITY st0 "fill:#00354E;">
	<!ENTITY st1 "fill:#F39200;">
	<!ENTITY st2 "fill:#533300;">
	<!ENTITY st3 "fill:#FDC300;">
	<!ENTITY st4 "fill:#009FE3;">
	<!ENTITY st5 "fill:#FFFFFF;">
]>
<svg version="1.1" id="doogsk" xmlns="http://www.w3.org/2000/svg" xmlns:xlink="http://www.w3.org/1999/xlink" x="0px" y="0px"
	 viewBox="0 0 137.16 92" style="enable-background:new 0 0 137.16 92;" xml:space="preserve">
<g id="midoogsk">
	<ellipse style="&st0;" cx="68.85" cy="46.23" rx="50.9" ry="46"/>
	<circle style="&st1;" cx="68.85" cy="46.23" r="43.19"/>
	<path style="&st2;" d="M52.7,47.42c-0.75-0.04-1.49-0.14-2.22-0.31L50,47.02l0,0c-0.5-0.02-0.99-0.11-1.46-0.27l-1.63-0.3
		c-0.72-0.09-1.4-0.4-1.94-0.89l-1-0.34c-1.07-0.23-1.93-1.02-2.24-2.07c-0.11-0.51-0.07-1.05,0.13-1.54l-0.07-0.09l-0.17-0.19
		l-0.06-0.08h-0.83c-1.39,0.03-2.76-0.28-4-0.9c-1.7-0.85-2.94-2.39-3.42-4.22c-0.22-1.25-0.19-2.53,0.08-3.77
		c0.11-0.61,0.18-1.22,0.2-1.84v-0.16c0-0.19-0.03-0.37-0.09-0.55c-0.08-0.14-0.17-0.27-0.28-0.39c-0.18-0.19-0.36-0.38-0.56-0.55
		l0,0l-0.31-0.25c-0.77-0.47-1.22-1.33-1.17-2.23c0.28-1.29,1.53-2.13,2.83-1.89c0.85,0.14,1.65,0.53,2.29,1.1l0.15,0.13l0.42,0.41
		c0.13,0.14,0.24,0.28,0.35,0.42c0.19,0.24,0.37,0.5,0.52,0.77c0.11,0.2,0.22,0.43,0.32,0.66c0.11,0.26,0.2,0.52,0.28,0.79
		l0.12,0.55v0.18c0.06,0.44,0.09,0.88,0.08,1.32c0,0.1,0,0.19,0,0.29c-0.01,0.25-0.03,0.51-0.07,0.76l0,0c0,0.2-0.05,0.4-0.08,0.6
		l-0.1,0.64c0,0.09,0,0.19,0,0.28c-0.01,0.13-0.01,0.26,0,0.39c-0.01,0.08-0.01,0.15,0,0.23l0,0c0.09,0.21,0.22,0.4,0.39,0.56
		l0.18,0.19l0.06,0.06c0.17,0.18,0.32,0.31,0.45,0.43l0.13,0.11c0.15,0.11,0.3,0.21,0.47,0.3l0.13,0.06l0.2,0.05h0.07
		c0.34-0.03,0.66-0.14,0.94-0.33l0.2-0.22l0.29-0.3l1.1-1.1l0.69-0.68c0.46-0.43,0.97-0.81,1.52-1.13c0.28-0.15,0.57-0.29,0.87-0.4
		h0.05c0.11-0.05,0.22-0.09,0.34-0.12c0.41-0.12,0.83-0.21,1.25-0.27l0,0c0.21,0,0.42-0.05,0.65-0.06s0.54,0,0.85,0h0.73h0.91
		l1,0.05h0.76c0.19-0.42,0.51-0.76,0.9-1c-0.04-0.12-0.08-0.24-0.11-0.36c-0.23-0.88-0.12-1.81,0.3-2.61l0,0l0,0l0,0v-0.07
		l0.06-0.08c0-0.2,0-0.41,0-0.63c0.06-0.5,0.15-0.99,0.28-1.48c0.14-0.57,0.59-1.02,1.16-1.16c0.12-0.01,0.24-0.01,0.36,0
		c0.19,0,0.38,0.03,0.56,0.1c0.14-0.02,0.28-0.02,0.42,0c0.21,0,0.42,0.04,0.62,0.13c0.34,0.15,0.62,0.39,0.83,0.7l0.34,0.48h0.35
		l0,0l0.4,0.1l0.32,0.1c0.13,0.05,0.26,0.1,0.39,0.16c0.15,0.07,0.3,0.15,0.44,0.23c0.37,0.21,0.71,0.47,1,0.77l0.26,0.28l0.06,0.07
		c0-0.43,0.12-0.84,0.35-1.2c0.07-0.1,0.14-0.19,0.22-0.27c0.16-0.44,0.49-0.8,0.91-1c0.17-0.09,0.35-0.15,0.53-0.19
		c0.26-0.13,0.55-0.19,0.84-0.19c0.22,0,0.44,0.03,0.65,0.11c0.2,0.07,0.38,0.16,0.55,0.29c0.83,0.35,1.33,1.21,1.21,2.1
		c0,0.32-0.06,0.64-0.11,1s-0.07,0.57-0.09,0.85v0.15c0.25,0.11,0.47,0.28,0.66,0.48c0.34,0.21,0.59,0.53,0.73,0.9
		c0.13,0.43,0.13,0.89,0,1.32c-0.18,0.69-0.42,1.36-0.72,2l0,0c-0.1,0.3-0.25,0.58-0.45,0.83c-0.25,0.27-0.54,0.49-0.86,0.65
		l-0.1,0.05c-0.09,0.08-0.17,0.17-0.24,0.27c-0.52,0.66-0.97,1.37-1.35,2.12c-0.15,0.32-0.34,0.62-0.57,0.89
		c-0.3,0.32-0.66,0.56-1.07,0.72c-0.49,0.19-1.02,0.28-1.55,0.27c-0.35,0-0.68,0-1-0.06l-0.69-0.07c-0.53,0.49-1.15,0.87-1.82,1.12
		c-0.66,0.28-1.32,0.54-2,0.8c-1.14,0.46-2.21,0.88-3.25,1.4l-0.54,0.27l-0.54,0.28h0.07h0.16h0.08c0.19-0.03,0.37-0.06,0.56-0.07
		h0.11c0.81,0.01,1.57,0.38,2.08,1c0.47,0.55,0.71,1.27,0.65,2c-0.01,0.17-0.05,0.34-0.12,0.49C54.39,47.05,53.56,47.52,52.7,47.42z
		"/>
	<path style="&st2;" d="M91.98,49.49h-1.19c-7.18-0.17-7.55-1.05-7.85-1.75c-0.2-0.46-0.17-0.98,0.06-1.42h-5
		c-0.26,0-0.52-0.07-0.75-0.2c-1.04-0.61-1.54-1.84-1.23-3c0.21-0.85,0.8-1.56,1.59-1.93c-0.37-0.82-0.57-1.71-0.57-2.61
		c0-0.49,0.06-0.98,0.17-1.46l-0.1-0.05l-2.68,4.27c-0.09,0.15-0.21,0.28-0.35,0.39c-0.72,0.58-2.26,2-3,2.78
		c-0.54,0.87-1.4,1.49-2.39,1.74c-0.11,0.01-0.21,0.01-0.32,0l-1.94,0.06c-0.23,0.02-0.45,0.02-0.68,0h-1.31
		c-1.79,0-2.48-0.77-2.75-1.42c-0.33-0.95-0.04-2.01,0.73-2.66c0.55-0.49,1.22-0.83,1.94-1l0.47-0.15c0.86-1.08,1.65-2.22,2.36-3.4
		l2.37-7.48l-0.11-0.19c-0.92-1.55-1.32-3.36-1.13-5.16c-0.1-0.53-0.27-1.05-0.51-1.53c-0.25-0.56-0.53-1.1-0.86-1.61l-2,0.85h-0.12
		c-0.23,0.07-0.46,0.12-0.7,0.14l0,0c-0.03,0.25-0.12,0.49-0.25,0.7c-0.32,0.53-0.89,0.85-1.51,0.85c-0.87,0-1.64-0.56-1.9-1.39
		c-0.17-0.59-0.17-1.22,0-1.81v-0.27c0.03-0.26,0.1-0.52,0.19-0.77c-0.87-0.18-1.65-0.66-2.21-1.35l-0.38-0.48
		c-0.73-0.91-0.59-2.24,0.32-2.97c0.05-0.04,0.1-0.08,0.15-0.11l3.89-2.55l0.07-0.17c0.03-0.1,0.07-0.2,0.12-0.29
		c0.31-0.73,0.78-1.38,1.38-1.91c-0.25-1.2-0.18-2.44,0.2-3.61c0.1-0.31,0.3-0.59,0.57-0.78c0.33-0.24,0.72-0.36,1.13-0.37h0.3
		l0.11-0.06c0.28-0.16,0.6-0.25,0.93-0.25c0.58,0.01,1.12,0.26,1.5,0.7c0.41,0.49,0.75,1.03,1,1.62c0.27,0.66,0.65,1.27,1.11,1.81
		l0.09,0.06c0.13,0.1,0.26,0.2,0.37,0.32l1.61,1.42l0.06,0.05h0.06l0.94,0.84l0.06,0.06l5.35,5.27l1.54,1.11
		c2.66,1.9,4.96,4.25,6.81,6.95L90.15,29c1.99,2.91,3.43,6.17,4.22,9.61l0.33,1.28c0.62,0.08,1.21,0.15,1.67,0.24h0.06h0.23h0.11
		l0.19,0.06c0.12,0.04,0.24,0.09,0.36,0.15c3.29,1.74,3.34,4,3.08,5.21c-0.36,1.48-1.43,2.69-2.86,3.22
		C97.18,49,96.06,49.49,91.98,49.49z"/>
	<path style="&st3;" d="M33.65,27.69L33.65,27.69c0.26,0.23,0.5,0.47,0.73,0.72c0.22,0.23,0.4,0.49,0.54,0.78
		c0.16,0.36,0.24,0.75,0.24,1.15v0.22c0,1.77-0.71,3.54-0.32,5.26c0.37,1.39,1.32,2.54,2.61,3.18c1.28,0.61,2.71,0.85,4.12,0.68
		c0.24,0,0.48-0.05,0.73-0.06c0.08,0.13,0.16,0.26,0.25,0.39l0,0v0.06v0.05l0,0l0.11,0.15l0,0l0.13,0.16l0.14,0.15l0,0l0.06,0.07
		l0.09,0.08l0.07,0.07l0.18,0.17l0.08,0.06l0,0l0.16,0.13l0,0c-0.14,0.24-0.27,0.5-0.38,0.76c-0.13,0.25-0.18,0.54-0.13,0.82
		c0.12,0.52,0.69,0.76,1.2,0.92l1.47,0.49c0.3,0.41,0.77,0.66,1.28,0.68l1.72,0.31c0.38,0.14,0.79,0.22,1.2,0.23h0.14
		c1,0.18,2.81,0.63,3,0.21c0.02-0.3-0.09-0.6-0.29-0.83c-0.22-0.29-0.57-0.45-0.93-0.44c-0.23,0-0.45,0.09-0.67,0.09
		c-0.21,0-0.43-0.04-0.63-0.11c-0.31-0.09-0.63-0.19-0.94-0.3c-0.14-0.09-0.29-0.15-0.46-0.17l-0.62-0.25c-0.1,0-0.22-0.1-0.24-0.21
		v-0.23c0.2-0.44,0.45-0.86,0.74-1.25l0,0h0.08l0,0h0.05l0.32-0.14l0.13-0.07c0.11-0.04,0.21-0.09,0.31-0.15l0,0l0,0l0.36-0.17l0,0
		l0.85-0.44c1.71-0.86,3.53-1.48,5.29-2.24c0.55-0.19,1.04-0.51,1.45-0.92l0.08-0.09l0.06-0.08V37.5l0,0v-0.06v-0.08l1.55,0.16
		c0.61,0.12,1.23,0.08,1.82-0.11c0.19-0.07,0.35-0.18,0.49-0.32c0.14-0.15,0.25-0.33,0.32-0.53c0.43-0.85,0.94-1.65,1.53-2.4
		c0.17-0.24,0.38-0.44,0.62-0.61c0.22-0.11,0.42-0.24,0.61-0.4c0.13-0.15,0.14-0.36,0.23-0.52c0.27-0.56,0.47-1.15,0.62-1.76
		c0.03-0.12,0.03-0.26,0-0.38c0-0.1-0.25-0.2-0.33-0.14c0.01-0.2-0.15-0.36-0.35-0.37c-0.12,0-0.24,0.06-0.31,0.16
		c-0.13-0.11-0.33-0.11-0.46,0l-0.12,0.24l-0.16,0.1c-0.25,0.06-0.24,0.25-0.27,0.5c-0.04,0.29-0.13,0.58-0.25,0.85
		c-0.08,0.13-0.17,0.24-0.27,0.35c-0.15,0.19-0.32,0.36-0.5,0.51c0-0.18,0.05-0.35,0.08-0.53s0.09-0.52,0.15-0.78l0.06-0.29
		c0.1-0.39,0.21-0.78,0.34-1.17l0.09-0.24c0.2-0.32,0.5-0.56,0.85-0.68c0.12-0.08,0.22-0.18,0.31-0.29c0.07-0.13,0.1-0.27,0.11-0.42
		c0-0.61,0.15-1.22,0.2-1.82v-0.29c0,0-0.22-0.32-0.41-0.22c-0.14-0.15-0.09-0.19-0.28-0.25c-0.17-0.07-0.36,0.01-0.43,0.17
		c0,0.01,0,0.01-0.01,0.02c-0.13,0-0.18-0.11-0.38,0s-0.13,0.37-0.22,0.55s-0.2,0.09-0.29,0.21c-0.09,0.2-0.12,0.43-0.08,0.65v0.12
		c0.03,0.2,0.03,0.4,0,0.6c-0.01,0.17-0.04,0.34-0.08,0.5c-0.07,0.25-0.16,0.5-0.26,0.74c0,0.09-0.09,0.18-0.13,0.28l-0.12,0.22
		c-0.19,0.33-0.4,0.64-0.61,1c-0.09,0.12-0.17,0.25-0.25,0.38s-0.18,0.27-0.26,0.41s-0.12,0.22-0.17,0.33l-0.15,0.27
		c-0.1,0.21-0.26,0.39-0.46,0.51c-0.25,0.11-0.53,0.13-0.79,0.06v-0.1v-0.24v-0.11c0-0.11,0-0.23,0-0.34s0-0.35,0-0.53
		c0.12-0.49,0.51-0.88,1-1c0.26-0.07,0.49-0.23,0.64-0.46c0.06-0.09,0.11-0.19,0.14-0.29c0.02-0.13,0.02-0.25,0-0.38
		c0-0.12-0.05-0.24-0.12-0.34l0,0c-0.12-0.09-0.25-0.16-0.39-0.2c-0.22-0.08-0.42-0.19-0.59-0.34c-0.2-0.18-0.38-0.37-0.54-0.58
		c-0.18-0.19-0.39-0.35-0.62-0.49l-0.3-0.15l-0.26-0.1L58.32,27l-0.28-0.07c-0.29-0.05-0.59-0.08-0.89-0.09l-0.19-0.26l0,0l0,0
		l-0.57-0.78l-0.18-0.18c-0.12,0.27-0.21,0.55-0.28,0.84c-0.22-0.3-0.45-0.6-0.69-0.89c-0.11,0.41-0.19,0.83-0.23,1.25
		c-0.04,0.29-0.04,0.57,0,0.86v0.07l-0.22,0.27l0,0l-0.11,0.17v0.05c-0.24,0.46-0.29,1-0.15,1.5l0.07,0.23l0.08,0.22l0.12,0.24v0.1
		v0.12v0.17l-0.06,0.26c-0.05,0.16-0.11,0.31-0.15,0.46l-0.18,0.06l-0.17,0.06h-0.09l0,0h-0.06H54l-0.13,0.07
		c-0.17,0.11-0.3,0.28-0.38,0.47l-0.07,0.16c-0.07,0.17-0.18,0.32-0.33,0.42c-0.13,0.07-0.28,0.1-0.43,0.09c-0.27,0-0.53,0-0.8,0
		h-0.48l-1.89-0.09h-0.66c-0.25-0.01-0.51-0.01-0.76,0c-0.18,0.01-0.37,0.03-0.55,0.06c-0.34,0.04-0.67,0.11-1,0.21l-0.3,0.1
		c-0.22,0.09-0.44,0.19-0.65,0.3c-0.44,0.26-0.85,0.57-1.21,0.92l-0.65,0.64l-0.41,0.41l-0.69,0.69l-0.26,0.27
		c-0.09,0.09-0.17,0.18-0.25,0.28v0.06c-0.63,0.47-1.4,0.71-2.19,0.68c-0.19-0.01-0.38-0.06-0.56-0.12c-0.1-0.03-0.2-0.07-0.3-0.12
		c-0.27-0.13-0.53-0.29-0.76-0.48l-0.19-0.15c-0.19-0.16-0.37-0.33-0.54-0.5l-0.07-0.07l-0.22-0.23c-0.34-0.33-0.6-0.75-0.75-1.2
		v-0.22c-0.02-0.18-0.02-0.35,0-0.53c-0.01-0.18-0.01-0.37,0-0.55c0-0.12,0-0.23,0-0.34l0,0c0-0.2,0.07-0.39,0.1-0.59
		s0.06-0.37,0.08-0.56s0.06-0.46,0.07-0.69v-0.24c0.01-0.35,0-0.71-0.05-1.06v-0.12c-0.02-0.14-0.05-0.28-0.09-0.42
		c-0.05-0.2-0.12-0.4-0.2-0.59c-0.08-0.17-0.16-0.34-0.25-0.5c-0.11-0.21-0.24-0.4-0.39-0.59c-0.08-0.1-0.16-0.21-0.25-0.31
		S35.31,27,35.2,26.89l-0.08-0.07c-0.43-0.39-0.96-0.65-1.53-0.76c-0.42-0.06-1,0.09-1,0.51s0.29,0.61,0.56,0.82L33.65,27.69z"/>
	<path style="&st3;" d="M66.45,44.73l1.88-0.06c0.66-0.17,1.21-0.61,1.53-1.21l0.08-0.08c0.41-0.4,2.29-2.2,3.19-2.92l3.45-5.5
		c0.85,0.49,1.74,0.91,2.66,1.25c-0.39,0.71-0.6,1.51-0.6,2.32c0.02,1.54,0.76,2.99,2,3.91c-0.19,0.04-0.36,0.11-0.52,0.22
		l-0.86-0.24c-1.76-0.23-2.2,1.78-1.23,2.31h12.39c0.44,0,0.86-0.17,1.17-0.48l0.17-0.19c0.18-0.26,0.29-0.56,0.32-0.87
		c0.51,0.23,1,0.42,1.54,0.6s1.58,0.64,1.58,0.64s0.47,0.91-4.46,1.23c-1.3-0.03-2.61,0.05-3.9,0.23c-0.93,0.06-1.8,0.47-2.44,1.14
		c-0.36,0.39,3,0.8,6.43,0.88c2.53,0.06,5.08-0.06,6.08-0.51c0.98-0.33,1.72-1.13,2-2.12c0.29-1.35-0.47-2.53-2.27-3.49l-0.13-0.05
		H96.4h-0.06h-0.18l0,0c-0.64-0.13-1.7-0.23-2.62-0.37l-0.6-2.34c-0.75-3.25-2.11-6.33-4-9.08l-2.42-3.51
		c-1.74-2.55-3.92-4.77-6.43-6.57l-1.74-1.26l-5.43-5.36l-0.14-0.13l-0.84-0.74l-0.08-0.07l-1.7-1.5l-0.17-0.14l0,0l-0.14-0.1
		c-1.12-1-1.66-2.95-2.26-3.6c-0.17-0.18-0.34-0.24-0.52-0.14c-0.14,0.3-0.25,0.62-0.33,0.94c-0.4-0.53-0.75-0.85-1-0.63
		c-0.39,1.23-0.35,2.56,0.11,3.77l-0.38,0.22c-0.61,0.42-1.09,1.01-1.38,1.69L64.01,13l-0.24,0.65l-4.31,2.82
		c-0.25,0.17-0.31,0.52-0.14,0.77c0.01,0.01,0.01,0.02,0.02,0.02l0.14,0.17l0.25,0.31c0.48,0.61,1.23,0.92,2,0.83l3.39-0.5
		c0.23-0.03,0.46,0.1,0.56,0.31l0,0c0.12,0.27,0.01,0.58-0.25,0.71l-0.42,0.21l-0.79,0.11l0,0c-0.18,0.03-0.35,0.07-0.52,0.13
		l-0.44,0.19l-0.17-0.22v0.29c-0.22,0.12-0.43,0.27-0.62,0.43c-0.28,0.18-0.45,0.49-0.46,0.82c-0.13,0.44-0.17,0.9-0.11,1.36
		c0.09,0.28,0.45,0.44,0.58,0.24s0-1.53,0.12-1.83c0.03-0.09,0.07-0.17,0.12-0.24l0.09,0.24l0,0c0.09,0.08,0.19,0.14,0.3,0.19h0.09
		h0.08l0.19,0.06h0.06c0.11,0.02,0.22,0.02,0.33,0h0.08c0.12-0.01,0.24-0.03,0.35-0.07l3-1.27h0.11c0.78,0.81,1.4,1.77,1.8,2.82
		c0.35,0.7,0.57,1.45,0.64,2.23c-0.18,1.5,0.15,3.01,0.92,4.31v0.07c0.14,0.23,0.28,0.45,0.43,0.66l-2.6,8.21
		c-0.8,1.4-1.71,2.74-2.72,4c-0.33,0.49-1.87,0.58-2.43,1.13s-0.82,1.4,0.91,1.4l1.39-0.05C65.96,44.63,66.2,44.7,66.45,44.73z"/>
	<path style="&st4;" d="M102.6,42.74c11.09,1.69,22.04,4.2,32.75,7.51l-10.19,26.91c-36.89-11.36-76.33-11.36-113.22,0L1.75,50.25
		c10.79-3.34,21.83-5.86,33-7.54l2.18,5.69l4.66,5.15l52.33,0.39l6.41-5.54L102.6,42.74z"/>
	<path style="&st0;" d="M126.03,78.85l-1.23-0.38c-36.63-11.22-75.78-11.22-112.41,0l-1.23,0.38L0,49.38L1.35,49
		c10.88-3.36,21.99-5.9,33.25-7.59l1.09-0.16l2.48,6.48l4.1,4.51l51.21,0.39l5.76-5l2.44-6.37l1.09,0.16
		c11.17,1.69,22.2,4.22,33,7.56l1.39,0.43L126.03,78.85z M3.59,51.14l9.22,24.34c36.38-10.95,75.18-10.95,111.56,0l9.22-24.34
		c-9.87-2.99-19.93-5.28-30.11-6.87l-1.9,5l-7.05,6.11l-53.45-0.41l-5.24-5.78l-1.88-4.91C23.69,45.86,13.54,48.15,3.59,51.14z"/>
	<path style="&st4;" d="M113.69,80c-29.3-9.03-60.63-9.03-89.93,0c-3.29-8.67-6.57-17.33-9.86-26c28.01-8.63,57.65-10.53,86.53-5.55
		c7.82,1.35,15.55,3.2,23.13,5.55L113.69,80z"/>
	<path style="&st0;" d="M113.69,81.38c-0.14,0-0.27-0.02-0.4-0.07c-29.04-8.89-60.09-8.89-89.13,0c-0.69,0.22-1.43-0.14-1.68-0.82
		l-9.87-26c-0.15-0.35-0.15-0.74,0-1.09c0.16-0.34,0.47-0.6,0.83-0.7c35.98-11.11,74.48-11.11,110.46,0
		c0.36,0.11,0.65,0.36,0.82,0.7c0.17,0.34,0.19,0.74,0.05,1.09l-9.86,26C114.72,81.01,114.24,81.36,113.69,81.38z M68.69,71.87
		c14.95-0.01,29.82,2.16,44.14,6.45l8.89-23.48c-34.6-10.37-71.47-10.37-106.07,0l8.9,23.48c14.33-4.29,29.22-6.47,44.18-6.45H68.69
		z"/>
	<path style="&st4;" d="M100.43,48.41c7.82,1.36,15.54,3.23,23.12,5.59c0,0-14.26-8.77-21-11.17L100.43,48.41z"/>
	<path style="&st0;" d="M123.55,55.32c-0.14,0-0.27-0.02-0.4-0.06c-7.54-2.32-15.22-4.16-23-5.5c-0.42-0.06-0.79-0.31-1-0.68
		c-0.21-0.35-0.24-0.78-0.09-1.16l2.29-5.62c0.26-0.7,1.04-1.06,1.74-0.8c6.77,2.42,20.64,10.93,21.23,11.28
		c0.58,0.37,0.81,1.11,0.53,1.74C124.62,55.03,124.11,55.34,123.55,55.32z M102.3,47.32c3.83,0.7,7.65,1.52,11.43,2.45
		c-3.36-1.92-6.83-3.66-10.38-5.21L102.3,47.32z"/>
	<path style="&st4;" d="M37.02,48.41C29.2,49.77,21.47,51.64,13.89,54c0,0,14.26-8.77,21-11.17L37.02,48.41z"/>
	<path style="&st0;" d="M13.9,55.32c-0.76,0-1.37-0.61-1.38-1.36c0-0.48,0.25-0.93,0.66-1.18c0.59-0.35,14.46-8.86,21.22-11.28
		c0.7-0.26,1.48,0.1,1.74,0.8l2.16,5.62c0.15,0.38,0.12,0.81-0.09,1.16c-0.21,0.37-0.58,0.62-1,0.68c-7.78,1.34-15.46,3.18-23,5.5
		C14.11,55.29,14.01,55.31,13.9,55.32z M34.08,44.56c-3.54,1.57-6.99,3.31-10.35,5.24c3.78-0.94,7.6-1.75,11.43-2.45L34.08,44.56z"
		/>
	<path style="&st5;" d="M32.62,70.31l-5.4,1.28l-3.11-13.05l5.41-1.29c4.69-1.11,7.17,0.36,8.26,4.93S37.35,69.19,32.62,70.31z
		 M28.46,60.31l1.89,7.79l1.5-0.36c2.08-0.49,2.7-1.88,2-4.62s-1.83-3.7-3.92-3.21L28.46,60.31z"/>
	<path style="&st5;" d="M53.24,59.83c0.73,4.91-1.07,7.32-6,8s-7.32-1.07-8-6s1.08-7.33,6-8S52.52,54.92,53.24,59.83z M43.24,61.31
		c0.43,2.92,1.52,4,3.64,3.72s2.85-1.7,2.42-4.61s-1.52-4-3.64-3.73s-2.89,1.69-2.46,4.62H43.24z"/>
	<path style="&st5;" d="M68.86,58.9c0.28,5-1.73,7.19-6.68,7.47s-7.2-1.73-7.47-6.69s1.73-7.19,6.68-7.47S68.59,53.94,68.86,58.9z
		 M58.72,59.46c0.16,2.95,1.16,4.16,3.3,4s3-1.43,2.82-4.38s-1.15-4.16-3.29-4S58.56,56.51,58.72,59.46z"/>
	<path style="&st5;" d="M77.45,58l6.71,0.23v1.15c-0.17,5-2.26,7-6.95,6.86c-5-0.17-7-2.37-6.85-7.33s2.37-7,7.33-6.85
		c3.91,0.13,5.81,1.58,6.36,4.82l-3.64-0.13c-0.26-1.21-1.11-1.76-2.82-1.82c-2.14-0.07-3.1,1.16-3.21,4.11s0.78,4.25,2.93,4.32
		s3.09-0.76,3.16-2.77l-3.07-0.1L77.45,58z"/>
	<path style="&st5;" d="M96.57,63.49c-0.36,3.06-2.22,4.18-6.22,3.72s-5.56-1.91-5.23-4.85l3.42,0.4c-0.13,1.2,0.49,1.79,2.09,2
		s2.14-0.16,2.25-1.1c0.3-2.66-7.48-2-6.94-6.77c0.36-3.07,2.17-4.19,6-3.75s5.38,1.9,5,4.83l-3.43-0.4
		c0.14-1.2-0.43-1.78-1.89-1.95s-2,0.18-2.06,1.11C89.35,58.8,97.16,58.35,96.57,63.49z"/>
	<polygon style="&st5;" points="103.16,60.12 108.05,56.1 112.56,56.99 106.04,62.35 110.34,70.22 105.83,69.33 102.53,63.29 
		101.51,68.48 97.75,67.74 100.34,54.58 104.1,55.32 	"/>
</g>
</svg>
