<?xml version="1.0" encoding="utf-8"?>
<!-- Generator: Adobe Illustrator 24.0.0, SVG Export Plug-In . SVG Version: 6.00 Build 0)  -->
<!DOCTYPE svg PUBLIC "-//W3C//DTD SVG 1.1//EN" "http://www.w3.org/Graphics/SVG/1.1/DTD/svg11.dtd" [
	<!ENTITY st0 "fill:#FFFFFF;">
	<!ENTITY st1 "fill:#003A56;">
	<!ENTITY st2 "fill:#F09700;">
	<!ENTITY st3 "fill:#583600;">
	<!ENTITY st4 "fill:#FAC600;">
	<!ENTITY st5 "fill:#009BDD;">
]>
<svg version="1.1" id="Capa_1" xmlns="http://www.w3.org/2000/svg" xmlns:xlink="http://www.w3.org/1999/xlink" x="0px" y="0px"
	 viewBox="0 0 266 184" style="enable-background:new 0 0 266 184;" xml:space="preserve">
<g>
	<path style="&st0;" d="M133.42,180.11c-24.6,0-47.85-8.3-65.82-23.42c-4.34,1.1-8.6,2.3-12.72,3.57c-0.77,0.24-1.58,0.36-2.39,0.36
		c-3.34,0-6.38-2.1-7.56-5.22l-1.19-3.15c-3.45,0.94-6.8,1.92-10,2.91l-7.26,2.25L2.46,93.96l8.21-2.54
		c8.54-2.65,17.32-5.04,26.14-7.14c2.01-21.32,12.36-41.07,29.46-55.99c18.14-15.84,41.98-24.56,67.15-24.56
		c25.21,0,49.08,8.75,67.23,24.63c17.11,14.98,27.44,34.78,29.39,56.14c8.51,2.05,16.97,4.37,25.21,6.92l8.21,2.54l-24.02,63.45
		l-7.26-2.25c-3.06-0.95-6.26-1.88-9.56-2.79l-1.15,3.03c-1.18,3.12-4.22,5.22-7.56,5.22c-0.81,0-1.62-0.12-2.39-0.36
		c-4.02-1.24-8.17-2.41-12.38-3.49C181.18,171.85,157.96,180.11,133.42,180.11z"/>
	<ellipse style="&st1;" cx="133.42" cy="91.92" rx="91.36" ry="82.57"/>
	<circle style="&st2;" cx="133.42" cy="91.92" r="77.53"/>
	<path style="&st3;" d="M104.45,94.05c-1.19,0-2.68-0.3-4-0.56c-0.31-0.06-0.6-0.12-0.85-0.17h-0.01c-0.69,0-1.51-0.15-2.62-0.48
		l-2.93-0.53c-0.7-0.13-2.31-0.42-3.49-1.59l-1.83-0.6c-0.85-0.28-3.43-1.13-4.02-3.72c-0.24-1.08-0.02-2.05,0.24-2.77l-0.13-0.15
		c-0.09-0.1-0.2-0.23-0.3-0.36l-0.11-0.13c-0.5,0.04-1,0.06-1.49,0.06h0c-2.64,0-5.04-0.54-7.13-1.62c-3.12-1.6-5.41-4.43-6.13-7.57
		c-0.56-2.41-0.19-4.73,0.14-6.78c0.19-1.17,0.36-2.27,0.36-3.3c0-0.11,0-0.2,0-0.28c-0.02-0.45-0.07-0.79-0.17-0.99
		c-0.1-0.21-0.34-0.5-0.52-0.7c-0.31-0.35-0.65-0.68-1-0.99l-0.07-0.06c-0.18-0.16-0.37-0.31-0.56-0.45c-0.64-0.49-2.34-1.78-2.1-4
		c0.21-2.01,2.02-3.47,4.28-3.47c0.27,0,0.54,0.02,0.8,0.06c1.43,0.23,2.82,0.89,4.11,1.98c0.1,0.09,0.19,0.16,0.26,0.23
		c0.26,0.23,0.52,0.48,0.76,0.74c0.23,0.25,0.43,0.49,0.63,0.75c0.33,0.42,0.64,0.89,0.92,1.39c0.21,0.36,0.4,0.77,0.58,1.18
		c0.19,0.45,0.36,0.93,0.49,1.42c0.09,0.33,0.16,0.65,0.22,0.98c0.02,0.11,0.04,0.22,0.05,0.33c0.11,0.75,0.15,1.53,0.13,2.37
		c-0.01,0.18-0.01,0.35-0.03,0.52c-0.03,0.43-0.07,0.88-0.13,1.37l0,0.02c-0.04,0.36-0.1,0.72-0.15,1.08l-0.18,1.15
		c-0.03,0.17-0.05,0.33-0.08,0.5c-0.04,0.29-0.06,0.51-0.07,0.7c-0.01,0.17,0,0.3,0.02,0.41l0.02,0.09c0.07,0.25,0.3,0.58,0.69,1
		c0.11,0.12,0.21,0.23,0.33,0.34l0.1,0.11c0.32,0.32,0.58,0.55,0.82,0.76l0.23,0.19c0.32,0.25,0.6,0.43,0.84,0.55l0.25,0.11
		c0.13,0.05,0.25,0.07,0.35,0.08l0.13,0.01h0c0.43,0,0.98-0.2,1.68-0.6c0.12-0.13,0.24-0.26,0.36-0.39
		c0.15-0.17,0.33-0.35,0.52-0.53l1.98-1.99c0.41-0.41,0.82-0.82,1.25-1.21c0.96-0.89,1.82-1.53,2.71-2.03
		c0.49-0.27,1.02-0.52,1.57-0.72l0.09-0.03c0.2-0.07,0.4-0.14,0.61-0.21c0.7-0.21,1.46-0.38,2.24-0.48l0.02,0
		c0.37-0.05,0.75-0.09,1.16-0.12c0.46-0.03,0.97-0.05,1.54-0.06l0.42,0c0.32,0,0.6,0.01,0.89,0.02c0.54,0.02,1.08,0.05,1.63,0.08
		c0.58,0.03,1.16,0.06,1.73,0.08c0.26,0.01,0.53,0.01,0.79,0.01c0,0,0.43,0,0.57,0c0.27-0.5,0.75-1.22,1.61-1.71l0,0
		c-0.07-0.22-0.14-0.44-0.18-0.64c-0.55-2.22,0.09-3.89,0.53-4.69l0.06,0.03l0.03-0.07l-0.05-0.03l0.07-0.12l0.09-0.15
		c-0.01-0.36,0-0.74,0.03-1.13c0.08-0.98,0.3-1.87,0.49-2.67c0.25-1.03,1.06-1.84,2.09-2.08c0.21-0.05,0.43-0.07,0.64-0.07
		c0.35,0,0.69,0.06,1,0.19c0.24-0.06,0.49-0.1,0.73-0.1c0.38,0,0.76,0.08,1.13,0.24c0.85,0.37,1.31,1.01,1.48,1.25l0.62,0.86
		c0.21,0.03,0.41,0.06,0.61,0.1l0.01,0c0.24,0.05,0.48,0.11,0.72,0.18c0.19,0.05,0.38,0.11,0.56,0.18l0,0
		c0.25,0.09,0.48,0.18,0.71,0.28l0,0c0.27,0.12,0.54,0.26,0.79,0.4c0.66,0.38,1.25,0.84,1.76,1.38c0.16,0.17,0.31,0.34,0.46,0.52
		l0.1,0.12c0.02-0.85,0.23-1.56,0.64-2.16c0.11-0.17,0.24-0.33,0.39-0.47c0.38-1.06,1.07-1.59,1.63-1.86
		c0.31-0.16,0.63-0.27,0.96-0.33c0.46-0.23,0.98-0.36,1.51-0.36c0.4,0,0.79,0.07,1.17,0.2c0.38,0.13,0.7,0.3,0.99,0.51
		c1,0.42,1.63,1.28,1.88,1.85c0.26,0.6,0.34,1.22,0.27,1.93c-0.05,0.56-0.12,1.15-0.19,1.73c-0.06,0.5-0.13,1.01-0.17,1.51
		c-0.01,0.07-0.01,0.16-0.03,0.26c0.46,0.2,0.86,0.5,1.19,0.87c0.6,0.38,1.07,0.94,1.31,1.61c0.3,0.83,0.24,1.77,0.08,2.37
		c-0.42,1.57-0.83,2.74-1.3,3.66l-0.02,0.06c-0.11,0.32-0.31,0.91-0.8,1.49c-0.54,0.63-1.17,0.97-1.55,1.17l-0.18,0.1
		c-0.05,0.03-0.16,0.14-0.42,0.48c-0.94,1.18-1.75,2.46-2.43,3.81c-0.23,0.47-0.52,1.05-1.03,1.6c-0.51,0.55-1.15,0.98-1.91,1.29
		c-0.83,0.33-1.74,0.49-2.79,0.49c-0.63,0-1.22-0.06-1.82-0.12l-1.24-0.13c-1.01,0.99-2.21,1.56-3.28,2.02
		c-1.18,0.51-2.37,0.98-3.52,1.44c-2.04,0.81-3.97,1.58-5.82,2.51c-0.32,0.16-0.65,0.33-0.97,0.5c0,0-0.83,0.43-0.97,0.5l0.12,0.04
		l0.29,0.08l0.15-0.03c0.25-0.05,0.59-0.11,0.99-0.13l0.19,0c1.42,0,2.79,0.65,3.74,1.78c0.85,1,1.28,2.3,1.17,3.57
		c-0.03,0.3-0.1,0.6-0.22,0.88C107.67,92.8,106.78,94.05,104.45,94.05z"/>
	<path style="&st3;" d="M174.95,97.77c-0.71,0-1.42-0.01-2.14-0.03c-12.88-0.3-13.56-1.87-14.1-3.13c-0.36-0.85-0.31-1.78,0.12-2.56
		h-8.93c-0.47,0-0.94-0.12-1.35-0.34c-1.86-1.01-2.76-3.26-2.2-5.46c0.4-1.57,1.45-2.81,2.85-3.47c-0.67-1.46-1.02-3.04-1.02-4.68
		c0-0.89,0.1-1.76,0.3-2.62l-0.18-0.09l-4.8,7.66c-0.17,0.26-0.37,0.5-0.62,0.7c-1.29,1.04-4.06,3.66-5.43,4.99
		c-1.07,1.63-2.55,2.71-4.29,3.12c-0.18,0.04-0.37,0.07-0.56,0.08l-3.47,0.11c-0.44,0-0.85-0.02-1.23-0.07l-2.35,0.07
		c-3.2,0-4.45-1.38-4.93-2.54c-0.64-1.54-0.15-3.33,1.31-4.78c0.99-0.99,2.31-1.39,3.48-1.75c0.26-0.08,0.61-0.19,0.84-0.27
		c2.54-3.37,3.97-5.5,4.25-6.11l4.25-13.43l-0.2-0.33c-1.65-2.76-2.38-6.04-2.04-9.25c-0.04-0.4-0.26-1.33-0.9-2.75
		c-0.51-1.15-1.09-2.17-1.55-2.9l-3.65,1.53l-0.21,0.08c-0.39,0.13-0.81,0.21-1.27,0.25l-0.03,0c-0.07,0.45-0.2,0.86-0.44,1.26
		c-0.58,0.96-1.6,1.53-2.72,1.53c-1.5,0-2.9-1.03-3.4-2.5c-0.43-1.26-0.18-2.45-0.01-3.24c0.03-0.16,0.07-0.32,0.09-0.48
		c0.07-0.53,0.18-0.98,0.34-1.39c-1.56-0.32-2.95-1.17-3.97-2.44l-0.68-0.85c-0.67-0.86-0.95-1.93-0.79-2.98
		c0.16-1.04,0.76-1.97,1.63-2.55l6.98-4.58l0.12-0.31c0.06-0.17,0.14-0.34,0.22-0.51c0.59-1.34,1.44-2.51,2.49-3.44
		c-0.44-2.28-0.32-4.41,0.35-6.47c0.19-0.56,0.54-1.06,1.03-1.4c0.6-0.43,1.29-0.66,2.02-0.66c0.19,0,0.37,0.01,0.55,0.04l0.2-0.12
		c0.52-0.29,1.1-0.44,1.68-0.44c0.7,0,1.74,0.22,2.69,1.25c0.71,0.76,1.2,1.76,1.76,2.92c0.56,1.14,1.24,2.54,2,3.25l0.16,0.11
		c0.21,0.15,0.45,0.33,0.67,0.57l2.89,2.54l0.11,0.09l0.11,0.1l1.7,1.5l0.11,0.1l9.59,9.46l2.76,1.98
		c4.78,3.43,8.9,7.63,12.23,12.49l4.33,6.3c3.6,5.25,6.15,11.05,7.58,17.25l0.59,2.3c1.12,0.14,2.18,0.28,3,0.44l0.09,0.02
		c0.15,0.03,0.29,0.06,0.41,0.09l0.19,0.05c0.14,0.04,0.25,0.07,0.35,0.1c0.23,0.08,0.45,0.17,0.65,0.27
		c5.89,3.13,5.98,7.21,5.52,9.36c-0.38,1.75-1.58,4.17-5.12,5.77C184.28,96.87,182.27,97.77,174.95,97.77z"/>
	<path style="&st4;" d="M70.25,58.64L70.25,58.64c0.47,0.4,0.91,0.84,1.31,1.29c0.38,0.42,0.73,0.87,0.97,1.39
		c0.3,0.64,0.4,1.36,0.42,2.07c0,0.13,0.01,0.25,0.01,0.38c0,3.17-1.29,6.36-0.57,9.45c0.57,2.47,2.42,4.54,4.67,5.69
		c2.26,1.16,4.88,1.47,7.4,1.23c0.43-0.04,0.87-0.1,1.31-0.12c0.14,0.24,0.29,0.47,0.45,0.7l0.02,0.03l0.08,0.11l0.07,0.09
		l0.06,0.08l0.21,0.26l0.03,0.04l0.24,0.28l0.24,0.26l0.01,0.02l0.02,0.02l0.11,0.11l0.15,0.15l0.13,0.12
		c0.11,0.1,0.22,0.2,0.34,0.3l0.12,0.11l0.01,0.01l0.29,0.23l0,0l0.01,0.01l0,0l0,0c-0.26,0.44-0.49,0.89-0.68,1.36
		c-0.19,0.46-0.35,0.97-0.24,1.46c0.21,0.93,1.25,1.37,2.15,1.67c0.88,0.29,1.76,0.58,2.65,0.87c0.39,0.79,1.41,1.07,2.3,1.23
		c1.03,0.19,2.06,0.37,3.08,0.56c0.88,0.27,1.68,0.45,2.16,0.39l0.26,0.05c1.77,0.32,5.04,1.13,5.36,0.39
		c0.05-0.55-0.16-1.09-0.51-1.5c-0.41-0.49-1.03-0.81-1.67-0.78c-0.41,0.02-0.81,0.15-1.22,0.16c-0.38,0.01-0.75-0.09-1.11-0.19
		c-0.57-0.16-1.13-0.35-1.69-0.54c-0.25-0.16-0.52-0.28-0.82-0.31c-0.37-0.14-0.75-0.28-1.11-0.44c-0.18-0.08-0.38-0.18-0.43-0.37
		c-0.04-0.14,0.01-0.28,0.07-0.41c0.34-0.81,0.84-1.53,1.34-2.25l0.01-0.01l0.06-0.02l0.13-0.05l0.05-0.02l0.1-0.04
		c0.19-0.08,0.38-0.16,0.57-0.25l0.25-0.12c0.19-0.09,0.37-0.18,0.56-0.27l0.03-0.01l0.04-0.02c0.21-0.11,0.42-0.21,0.64-0.32
		l0.02-0.01c0.51-0.26,1.01-0.53,1.52-0.78c3.07-1.54,6.34-2.66,9.5-4.02c0.96-0.41,1.93-0.87,2.61-1.65l0.14-0.18l0.1-0.14
		l0.09-0.14l0.01-0.02l0.02-0.02l0.06-0.1l0.09-0.15c0.93,0.1,1.86,0.19,2.79,0.29c1.1,0.11,2.24,0.22,3.27-0.19
		c0.33-0.13,0.64-0.32,0.88-0.58c0.25-0.27,0.41-0.62,0.58-0.95c0.76-1.52,1.68-2.96,2.74-4.3c0.33-0.41,0.68-0.82,1.12-1.11
		c0.37-0.24,0.81-0.39,1.1-0.72c0.22-0.26,0.26-0.63,0.42-0.93c0.45-0.87,0.82-2.04,1.12-3.16c0.05-0.18,0.06-0.52-0.01-0.69
		c-0.06-0.17-0.44-0.35-0.59-0.25c0-0.28-0.19-0.54-0.45-0.63c-0.26-0.08-0.57,0.02-0.73,0.25c-0.18-0.2-0.7-0.21-0.84,0.02
		c-0.09,0.14-0.08,0.31-0.21,0.41c-0.11,0.09-0.14,0.15-0.28,0.18c-0.45,0.1-0.44,0.45-0.5,0.9c-0.05,0.46-0.25,1.11-0.45,1.53
		c-0.12,0.24-0.3,0.43-0.47,0.64c-0.26,0.32-0.57,0.62-0.9,0.91c0.04-0.32,0.09-0.64,0.14-0.95c0.07-0.47,0.16-0.93,0.26-1.4
		c0.04-0.17,0.08-0.34,0.12-0.51c0.17-0.71,0.37-1.41,0.6-2.1c0.05-0.15,0.1-0.3,0.16-0.44c0.18-0.46,0.4-0.9,0.77-1.22
		c0.19-0.17,0.42-0.31,0.56-0.52c0.14-0.22,0.17-0.5,0.19-0.76c0.09-1.08,0.27-2.17,0.37-3.26c0.01-0.15,0.02-0.37-0.04-0.51
		c-0.04-0.09-0.38-0.58-0.73-0.41c-0.24-0.27-0.16-0.34-0.51-0.45c-0.34-0.12-0.66,0.02-0.8,0.36c-0.22,0-0.33-0.21-0.67,0
		c-0.35,0.12-0.23,0.66-0.39,0.99c-0.12,0.25-0.38,0.15-0.53,0.38c-0.18,0.27-0.17,0.79-0.13,1.17l0.03,0.21
		c0.05,0.36,0.06,0.72,0.03,1.07c-0.02,0.3-0.07,0.59-0.15,0.89c-0.11,0.46-0.28,0.91-0.48,1.35l0,0c-0.07,0.17-0.15,0.33-0.24,0.49
		c-0.07,0.13-0.14,0.27-0.22,0.4c-0.34,0.59-0.72,1.16-1.1,1.73c-0.15,0.23-0.3,0.45-0.45,0.68c-0.16,0.24-0.31,0.49-0.46,0.74
		c-0.11,0.19-0.22,0.39-0.33,0.59c-0.08,0.16-0.17,0.33-0.25,0.49c-0.21,0.38-0.45,0.72-0.82,0.92c-0.43,0.22-0.93,0.19-1.41,0.11
		l0.02-0.18c0.02-0.14,0.03-0.29,0.05-0.43l0.02-0.21c0.02-0.2,0.04-0.4,0.06-0.61c0.03-0.32,0.06-0.64,0.09-0.96
		c0.2-1.34,1.52-1.82,1.7-1.87c0.47-0.11,0.87-0.42,1.14-0.82c0.11-0.16,0.19-0.33,0.25-0.51c0.07-0.22,0.1-0.45,0.08-0.68
		c-0.02-0.22-0.07-0.44-0.21-0.61l-0.07-0.07c-0.19-0.18-0.46-0.26-0.7-0.36c-0.39-0.15-0.76-0.35-1.07-0.61
		c-0.36-0.31-0.63-0.7-0.95-1.04c-0.33-0.35-0.71-0.64-1.13-0.88c-0.17-0.1-0.35-0.19-0.53-0.27h0c-0.15-0.07-0.31-0.14-0.47-0.19
		l0,0c-0.14-0.05-0.28-0.09-0.42-0.13c-0.17-0.05-0.33-0.09-0.5-0.12l0,0c-0.53-0.11-1.05-0.15-1.59-0.16
		c-0.11-0.16-0.23-0.31-0.34-0.47l-0.03-0.04l-0.01-0.02c-0.34-0.47-0.68-0.94-1.01-1.4c-0.09-0.12-0.18-0.25-0.32-0.31
		c-0.22,0.49-0.38,0.99-0.5,1.51c-0.39-0.55-0.8-1.08-1.24-1.59c-0.18,0.74-0.36,1.48-0.42,2.24c-0.04,0.51-0.03,1.04,0.06,1.55
		l0.02,0.12c-0.14,0.16-0.27,0.33-0.39,0.5l0,0l-0.01,0.01c-0.07,0.1-0.14,0.21-0.2,0.31l-0.05,0.09c-0.31,0.58-0.55,1.53-0.26,2.7
		c0.03,0.13,0.07,0.26,0.11,0.4c0.04,0.13,0.1,0.27,0.16,0.4c0.06,0.14,0.12,0.28,0.2,0.43l0.1,0.19l0.06,0.22l0,0.09l-0.01,0.21
		c-0.02,0.15-0.06,0.31-0.1,0.47c-0.08,0.28-0.19,0.56-0.28,0.81c-0.1,0.04-0.21,0.07-0.31,0.11c-0.11,0.03-0.21,0.07-0.31,0.1
		l-0.16,0.06l-0.1,0.04l-0.11,0.04l-0.15,0.06l-0.24,0.12c-0.32,0.17-0.5,0.51-0.66,0.85l0,0l-0.13,0.27
		c-0.15,0.31-0.32,0.59-0.61,0.75c-0.23,0.13-0.51,0.16-0.78,0.18c-0.48,0.03-0.95,0.04-1.43,0.04c-0.29,0-0.57-0.01-0.86-0.02
		c-1.13-0.03-2.26-0.12-3.39-0.16c-0.26-0.01-0.52-0.02-0.78-0.02c-0.13,0-0.27,0-0.4,0c-0.45,0-0.91,0.02-1.37,0.05
		c-0.34,0.02-0.67,0.05-1,0.1h0c-0.61,0.08-1.21,0.2-1.79,0.38c-0.18,0.05-0.36,0.12-0.54,0.18l0,0c-0.4,0.15-0.79,0.32-1.17,0.53
		c-0.79,0.44-1.5,1.02-2.17,1.64c-0.4,0.37-0.79,0.76-1.17,1.14c-0.25,0.25-0.49,0.49-0.74,0.74c-0.41,0.42-0.83,0.83-1.25,1.25
		c-0.16,0.16-0.31,0.31-0.46,0.48c-0.16,0.16-0.31,0.34-0.45,0.51l-0.09,0.11c-1.21,0.76-2.54,1.36-3.94,1.23
		c-0.34-0.03-0.68-0.11-1-0.22c-0.19-0.06-0.37-0.14-0.55-0.23c-0.48-0.22-0.93-0.52-1.36-0.86c-0.11-0.09-0.23-0.18-0.34-0.27
		c-0.34-0.29-0.66-0.6-0.97-0.9l-0.12-0.12c-0.14-0.14-0.27-0.28-0.4-0.42c-0.58-0.63-1.1-1.34-1.33-2.16
		c-0.04-0.13-0.06-0.25-0.08-0.38c-0.05-0.31-0.07-0.63-0.05-0.95c0.01-0.33,0.05-0.67,0.09-1c0.03-0.21,0.06-0.41,0.09-0.61l0-0.01
		c0.06-0.35,0.11-0.7,0.17-1.05v0c0.05-0.34,0.1-0.68,0.15-1.02v0c0.05-0.41,0.09-0.82,0.12-1.23c0.01-0.15,0.02-0.29,0.02-0.44
		c0.02-0.63,0-1.27-0.1-1.9L76,62.07c-0.04-0.25-0.1-0.5-0.17-0.74c-0.1-0.36-0.22-0.72-0.37-1.06c-0.13-0.31-0.27-0.61-0.44-0.9
		c-0.21-0.37-0.44-0.72-0.7-1.05c-0.15-0.19-0.3-0.38-0.46-0.55c-0.19-0.21-0.4-0.41-0.61-0.6l0,0l-0.14-0.13
		c-0.79-0.66-1.72-1.19-2.74-1.35c-0.76-0.12-1.76,0.15-1.84,0.92c-0.06,0.62,0.51,1.08,1,1.46C69.78,58.25,70.02,58.44,70.25,58.64
		z"/>
	<path style="&st4;" d="M129.12,89.23l3.39-0.11c1.35-0.32,2.2-1.28,2.74-2.18l0.15-0.14c0.74-0.71,4.1-3.95,5.71-5.25l6.2-9.88
		c1.51,0.89,3.11,1.64,4.77,2.25c-0.68,1.27-1.08,2.68-1.08,4.17c0,2.84,1.39,5.28,3.6,7.02c-0.37,0.07-0.68,0.22-0.95,0.4
		l-1.53-0.43c-3.16-0.41-3.96,3.2-2.22,4.15c0,0,3.03,0,4.09,0h14.59l0.01,0h2.56h1c0.82,0,1.56-0.33,2.1-0.87
		c0.11-0.11,0.2-0.22,0.3-0.35c0.33-0.43,0.53-0.98,0.57-1.56c0.92,0.42,1.87,0.76,2.77,1.08c1.04,0.37,2.83,1.14,2.83,1.14
		s0.86,1.64-8,2.21c-0.62,0.03-4.01-0.11-7,0.41c-1.91,0.34-3.64,0.95-4.39,2.05c-0.64,0.71,5.43,1.44,11.54,1.58
		c4.55,0.11,9.11-0.12,10.91-0.92c1.99-0.89,3.18-2.17,3.53-3.79c0.53-2.44-0.85-4.55-4.07-6.27l-0.23-0.1l-0.2-0.06l-0.12-0.03
		c-0.09-0.02-0.2-0.05-0.31-0.07l-0.07-0.01c-1.16-0.23-3.05-0.42-4.71-0.66l-1.08-4.21c-1.35-5.83-3.78-11.35-7.16-16.29l-4.33-6.3
		c-3.13-4.57-7.04-8.56-11.55-11.79l-2.94-2.11l-9.75-9.62l-0.26-0.23l-1.51-1.33l0,0l-0.14-0.12l-3.06-2.69
		c-0.04-0.08-0.16-0.17-0.29-0.25l-0.01-0.01l-0.03-0.02l-0.24-0.17c-2.02-1.75-2.99-5.29-4.06-6.45c-0.3-0.32-0.6-0.44-0.94-0.26
		c-0.26,0.56-0.44,1.13-0.59,1.7c-0.72-0.96-1.34-1.54-1.89-1.14c-0.73,2.22-0.59,4.4,0.19,6.78c-0.23,0.13-0.46,0.26-0.68,0.4
		c-1.11,0.74-1.95,1.81-2.48,3.03c-0.05,0.11-0.1,0.21-0.14,0.33l-0.44,1.16l-7.72,5.06c-0.47,0.32-0.57,0.98-0.21,1.42l0.24,0.3
		l0.45,0.55c0.88,1.1,2.28,1.67,3.68,1.49l6.08-0.91c0.42-0.05,0.83,0.17,1.01,0.56l0.01,0.02c0.22,0.48,0.02,1.04-0.45,1.27
		l-0.76,0.38c-0.46,0.06-0.95,0.12-1.4,0.2l-0.03-0.03v0.03c-0.35,0.06-0.68,0.14-0.93,0.23c-0.27,0.1-0.53,0.21-0.78,0.34
		l-0.3-0.38l0.04,0.51c-0.35,0.19-0.7,0.43-1.1,0.76c-0.59,0.5-0.73,0.72-0.83,1.49c-0.11,0.79-0.46,1.7-0.2,2.43
		c0.17,0.51,0.82,0.8,1.04,0.43c0.22-0.37,0.03-2.73,0.22-3.28c0.06-0.17,0.13-0.31,0.21-0.43c-0.02,0.16,0.04,0.32,0.17,0.43
		l0.02,0.02c0.16,0.14,0.34,0.25,0.53,0.35l0.16,0.08l0.15,0.07c0.11,0.04,0.23,0.07,0.35,0.1l0.09,0.03c0.2,0.04,0.4,0.05,0.6,0.04
		l0.15-0.01c0.21-0.02,0.42-0.05,0.62-0.12l5.43-2.28l0.18,0.04c0.65,0.32,2.17,2.66,3.23,5.05c0.66,1.47,1.14,2.96,1.15,4
		c-0.32,2.67,0.25,5.39,1.65,7.73l0.08,0.14c0.24,0.4,0.51,0.79,0.77,1.18l-4.66,14.73c-0.3,1.08-3.65,5.57-4.89,7.21
		c-0.6,0.89-3.36,1.04-4.36,2.04c-1,1-1.47,2.51,1.63,2.51l2.51-0.08C128.35,89.2,128.7,89.23,129.12,89.23z"/>
	<path style="&st5;" d="M194.01,85.67c19.89,3.01,39.58,7.51,58.85,13.47c-6.1,16.1-12.19,32.2-18.28,48.3
		c-65.86-20.39-137.36-20.39-203.22,0c-6.1-16.1-12.19-32.2-18.29-48.3c19.43-6.02,39.27-10.53,59.32-13.54l3.91,10.23l8.38,9.24
		l93.92,0.71l11.5-9.95L194.01,85.67z"/>
	<path style="&st1;" d="M236.06,150.47l-2.21-0.68c-65.06-20.14-136.71-20.14-201.77,0l-2.21,0.68L9.85,97.57l2.5-0.77
		c19.39-6,39.47-10.59,59.68-13.62l1.95-0.29l4.46,11.64l7.35,8.1l91.92,0.7l10.34-8.94l4.39-11.44l1.95,0.3
		c20.02,3.03,39.94,7.59,59.21,13.56l2.5,0.77L236.06,150.47z M16.29,100.72l16.54,43.7c32.34-9.78,66.01-14.73,100.13-14.73
		s67.79,4.95,100.13,14.73l16.54-43.7c-17.63-5.33-35.79-9.47-54.04-12.33l-3.41,8.89l-12.67,10.96l-95.93-0.73l-9.41-10.38
		l-3.37-8.81C52.36,91.19,34.05,95.36,16.29,100.72z"/>
	<path style="&st5;" d="M213.92,152.54c-52.32-16.2-109.11-16.2-161.42,0c-5.9-15.59-11.8-31.17-17.7-46.75
		c50.17-15.53,103.71-18.85,155.31-9.95c14.01,2.42,27.89,5.73,41.51,9.95C225.72,121.37,219.82,136.96,213.92,152.54z"/>
	<path style="&st1;" d="M213.92,155c-0.24,0-0.49-0.04-0.73-0.11c-51.58-15.97-108.39-15.97-159.97,0
		c-1.24,0.39-2.56-0.26-3.02-1.48l-17.7-46.75c-0.24-0.63-0.21-1.34,0.09-1.95c0.3-0.61,0.83-1.07,1.48-1.27
		c50.22-15.55,104.32-19.02,156.46-10.03c14.13,2.44,28.2,5.81,41.82,10.03c0.65,0.2,1.18,0.66,1.48,1.27
		c0.3,0.61,0.33,1.31,0.09,1.95l-17.7,46.75C215.84,154.39,214.91,155,213.92,155z M133.2,137.94c26.99,0,53.63,3.9,79.23,11.59
		l15.96-42.15c-12.64-3.8-25.64-6.86-38.7-9.11c-50.51-8.71-102.9-5.55-151.67,9.11l15.96,42.15
		C79.57,141.83,106.22,137.94,133.2,137.94z"/>
	<path style="&st5;" d="M190.11,95.84c14.01,2.42,27.89,5.73,41.51,9.95c0,0-25.6-15.73-37.64-20.05L190.11,95.84z"/>
	<path style="&st1;" d="M231.62,108.25c-0.24,0-0.48-0.04-0.73-0.11c-13.42-4.15-27.28-7.48-41.2-9.88
		c-0.72-0.13-1.36-0.57-1.72-1.21c-0.36-0.64-0.42-1.41-0.16-2.09l3.87-10.09c0.48-1.25,1.87-1.88,3.12-1.43
		c12.14,4.36,37.04,19.62,38.09,20.27c1.06,0.65,1.46,1.98,0.95,3.11C233.45,107.7,232.56,108.25,231.62,108.25z M193.47,93.94
		c6.87,1.25,13.73,2.72,20.52,4.4c-6.37-3.55-13.37-7.25-18.59-9.41L193.47,93.94z"/>
	<path style="&st5;" d="M76.3,95.83c-14.01,2.42-27.89,5.73-41.51,9.95c0,0,25.6-15.73,37.64-20.05L76.3,95.83z"/>
	<path style="&st1;" d="M34.79,108.25c-0.94,0-1.83-0.55-2.24-1.44c-0.51-1.13-0.1-2.46,0.95-3.11
		c1.05-0.65,25.95-15.91,38.09-20.27c1.26-0.45,2.65,0.19,3.12,1.43l3.87,10.09c0.26,0.69,0.21,1.46-0.16,2.09
		c-0.36,0.64-0.99,1.08-1.72,1.21c-13.92,2.4-27.78,5.72-41.2,9.88C35.28,108.21,35.03,108.25,34.79,108.25z M71.02,88.92
		c-5.23,2.16-12.23,5.86-18.59,9.41c6.79-1.68,13.64-3.15,20.52-4.4L71.02,88.92z"/>
	<path style="&st0;" d="M68.42,135.13l-9.71,2.31l-5.58-23.43l9.71-2.31c8.43-2.01,12.88,0.64,14.84,8.84
		C79.63,128.74,76.85,133.12,68.42,135.13z M60.94,117.1l3.35,14.06l2.68-0.64c3.75-0.89,4.85-3.38,3.68-8.3
		c-1.17-4.92-3.28-6.65-7.03-5.75L60.94,117.1z"/>
	<path style="&st0;" d="M105.41,116.34c1.29,8.81-1.93,13.14-10.75,14.43c-8.81,1.29-13.14-1.93-14.43-10.75
		c-1.29-8.81,1.93-13.14,10.75-14.43C99.79,104.3,104.12,107.52,105.41,116.34z M87.37,118.98c0.77,5.24,2.73,7.25,6.54,6.69
		c3.81-0.56,5.12-3.04,4.35-8.28c-0.77-5.24-2.73-7.25-6.54-6.69C87.91,111.25,86.61,113.74,87.37,118.98z"/>
	<path style="&st0;" d="M133.45,114.66c0.49,8.89-3.11,12.92-12,13.41c-8.89,0.49-12.91-3.11-13.41-12
		c-0.49-8.89,3.11-12.91,12-13.41C128.93,102.17,132.95,105.77,133.45,114.66z M115.25,115.67c0.29,5.29,2.07,7.46,5.91,7.25
		c3.85-0.21,5.37-2.57,5.08-7.86c-0.29-5.29-2.07-7.46-5.91-7.25S114.96,110.38,115.25,115.67z"/>
	<path style="&st0;" d="M148.88,113.01l12.03,0.41l-0.07,2.06c-0.3,8.91-4.04,12.6-12.47,12.31c-8.91-0.3-12.59-4.25-12.29-13.16
		c0.3-8.91,4.25-12.59,13.16-12.29c7.02,0.24,10.44,2.83,11.41,8.65l-6.53-0.22c-0.48-2.18-1.99-3.17-5.05-3.27
		c-3.85-0.13-5.58,2.08-5.76,7.38c-0.18,5.3,1.39,7.62,5.24,7.75c3.85,0.13,5.55-1.36,5.68-4.97l-5.5-0.19L148.88,113.01z"/>
	<path style="&st0;" d="M183.19,122.9c-0.63,5.5-3.98,7.5-11.16,6.67c-7.18-0.83-9.99-3.44-9.38-8.7l6.15,0.71
		c-0.25,2.15,0.87,3.22,3.74,3.55c2.63,0.3,3.84-0.28,4.03-1.96c0.55-4.78-13.43-3.63-12.44-12.17c0.64-5.5,3.88-7.52,10.82-6.71
		c6.94,0.8,9.65,3.4,9.04,8.66l-6.15-0.71c0.25-2.15-0.77-3.21-3.4-3.51c-2.39-0.28-3.5,0.32-3.69,2
		C170.31,114.49,184.25,113.67,183.19,122.9z"/>
	<polygon style="&st0;" points="195.01,116.85 203.8,109.64 211.89,111.24 200.18,120.85 207.91,134.99 199.81,133.39 
		193.89,122.55 192.05,131.86 185.3,130.53 189.96,106.91 196.71,108.24 	"/>
</g>
</svg>
